<svg id="Layer_1" enable-background="new 0 0 485.064 485.064" height="512" viewBox="0 0 485.064 485.064" width="512" xmlns="http://www.w3.org/2000/svg"><path d="m299.99 377.362c-4.976-2.635-4.257-2.116-50.5-18.07-21.868-7.545-36.49-28.144-36.49-51.19 35.82-14.9 61-50.23 61-91.44v-3.13c13.81 0 25-11.19 25-25v-54l-9.32-120h-229.36l-9.32 119v55.46c0 13.244 10.715 24.54 25 24.54v3.13c0 41.21 25.18 76.54 61 91.44 0 23.091-14.664 43.656-36.49 51.19-36.774 12.711-43.02 14.77-43.12 14.87-21.742 7.559-36.39 28.035-36.39 51.14v45.23c0 4.418 3.582 8 8 8h292c4.418 0 8-3.582 8-8v-45.23c0-20.35-11.38-38.72-29.01-47.94z" fill="#ffebd2"/><g fill="#585966"><path d="m299 134.532v54c0 13.81-11.19 25-25 25 0-80.47.006-76.235-.01-76.36z"/><path d="m76.01 136.332c-.016.14-.01-3.75-.01 77.2-14.261 0-25-11.27-25-24.54v-55.46z"/><path d="m289.68 14.532 9.32 120-122.211 12.91c-1.272.133 8.179.984-125.789-13.91l9.32-119h229.36z"/><path d="m299.99 377.362c-4.976-2.635-4.257-2.116-50.5-18.07-8.72-3.009-16.29-8.09-22.23-14.58l-52.26 28.82-52.26-28.82c-5.94 6.49-13.51 11.57-22.23 14.58-36.774 12.711-43.02 14.77-43.12 14.87-21.742 7.559-36.39 28.035-36.39 51.14v45.23c0 4.418 3.582 8 8 8h292c4.418 0 8-3.582 8-8v-45.23c0-20.35-11.38-38.72-29.01-47.94z"/><path d="m150 213.532c-4.418 0-8-3.582-8-8v-14c0-4.418 3.582-8 8-8s8 3.582 8 8v14c0 4.418-3.582 8-8 8z"/><path d="m200 213.532c-4.418 0-8-3.582-8-8v-14c0-4.418 3.582-8 8-8s8 3.582 8 8v14c0 4.418-3.582 8-8 8z"/></g><path d="m91.8 14.532-9.912 114.304c-.388 4.478-4.388 7.757-8.855 7.26l-22.033-2.564 9.32-119h31.48z" fill="#6e6f80"/><path d="m329 86.532c-4.418 0-8-3.582-8-8v-64c0-4.418 3.582-8 8-8s8 3.582 8 8v64c0 4.418-3.582 8-8 8z" fill="#42434d"/><path d="m208.724 325.838c-21.807 8.044-47.021 7.474-67.414.003-3.568-1.307-5.689-5.009-5.058-8.757.494-2.935.749-5.937.749-8.983 23.599 9.823 51.154 10.342 76 0 0 3.051.256 6.056.751 8.995.628 3.735-1.476 7.432-5.028 8.742z" fill="#ffdfba"/><path d="m262.44 363.762-87.44 66.52v-56.75l52.26-28.82c5.94 6.49 13.51 11.57 22.23 14.58z" fill="#cbe3fa"/><path d="m175 373.532v56.75l-87.44-66.52 12.95-4.47c8.72-3.01 16.29-8.09 22.23-14.58z" fill="#cbe3fa"/><path d="m342 22.532h-334c-4.418 0-8-3.582-8-8s3.582-8 8-8h334c4.418 0 8 3.582 8 8s-3.582 8-8 8z" fill="#585966"/><path d="m183 375.894v98.637c0 2.209-1.791 4-4 4h-8c-2.209 0-4-1.791-4-4v-98.637c0-3.044 3.265-4.973 5.931-3.503l2.069 1.141 2.069-1.141c2.666-1.469 5.931.459 5.931 3.503z" fill="#42434d"/><path d="m95.243 369.605c5.088 3.87 3.799 11.851-2.245 13.934-7.303 2.516-10.536 3.474-14.988 5.823-17.63 9.22-29.01 27.59-29.01 47.94v33.23c0 4.418-3.582 8-8 8h-12c-4.418 0-8-3.582-8-8v-45.23c0-23.11 14.653-43.583 36.39-51.14.101-.101 8.923-3.078 30.17-10.4z" fill="#6e6f80"/><path d="m137.838 353.039c5.408 2.983 5.578 10.772.239 13.877-5.899 3.43-8.939 4.164-26.88 10.351-2.527.871-5.325.423-7.452-1.195l-16.185-12.31 12.95-4.47c8.72-3.01 16.29-8.09 22.23-14.58z" fill="#eef7ff"/><path d="m152.313 280.472c16.405 10.3 3.876 35.328-14.104 28.124-36.803-14.746-62.209-50.615-62.209-91.934v-80.24l15.965 1.777c7.991.89 14.035 7.644 14.035 15.685v42.778c0 36.232 18.921 66.611 46.313 83.81z" fill="#fff3e4"/><path d="m283.026 38.532h-216.061c-4.692 0-8.376-4.018-7.97-8.692l.635-7.308h230.74l.627 7.317c.399 4.671-3.284 8.683-7.971 8.683z" fill="#42434d"/><path d="m482.92 433.322c-40.571-51.745-39.43-50.309-39.53-50.41 12.89-15.96 20.61-36.27 20.61-58.38 0-51.36-41.64-93-93-93s-93 41.64-93 93c0 22.11 7.72 42.42 20.61 58.38-.1.101.601-.774-39.53 50.41-4.9 6.25-.91 15.45 7.01 16.13l20.14 1.74c3.21.28 6.09 2.08 7.74 4.85l10.34 17.37c4.07 6.82 14.09 6.41 17.58-.73l28.12-57.52c0-.192 7.988 2.37 20.99 2.37 13.385 0 20.99-2.616 20.99-2.37l28.12 57.52c3.49 7.14 13.51 7.55 17.58.73l10.34-17.37c1.65-2.77 4.53-4.57 7.74-4.85l20.14-1.74c7.92-.68 11.91-9.88 7.01-16.13z" fill="#ffe773"/><path d="m482.92 433.322c4.9 6.25.91 15.45-7.01 16.13l-20.14 1.74c-3.21.28-6.09 2.08-7.74 4.85l-10.34 17.37c-4.07 6.82-14.09 6.41-17.58-.73l-28.12-57.52c0-.51 28.765-4.22 51.4-32.25.1.1-.601-.774 39.53 50.41z" fill="#80aaff"/><path d="m350.01 415.152c0 .101.155-.312-28.12 57.53-3.49 7.14-13.51 7.55-17.58.73l-10.34-17.37c-1.65-2.77-4.53-4.57-7.74-4.85l-20.14-1.74c-7.92-.68-11.91-9.88-7.01-16.13l39.51-50.39c.47-.474 16.112 24.075 51.42 32.22z" fill="#80aaff"/><circle cx="371" cy="324.532" fill="#fff0a6" r="52"/><path d="m341.059 349.065c2.143 7.376-7.596 12.258-12.119 6.05-6.671-9.157-10.423-20.578-9.89-32.895 1.169-27.005 23.447-49.23 51.08-49.681 7.737-.126 9.665 10.588 2.436 13.349-25.402 9.705-39.08 37.117-31.507 63.177z" fill="#fff8d6"/><path d="m306.933 374.343c3.092 6.518-5.925 11.847-10.264 6.083-12.079-16.047-19.052-36.087-18.653-57.647.929-50.237 42.379-91.26 93.008-91.247 7.176.002 8.296 10.396 1.271 11.859-59.866 12.468-90.838 77.248-65.362 130.952z" fill="#fff0a6"/><path d="m276.515 444.118c-2.285 3.555-6.214 5.698-10.425 5.334-7.92-.683-11.91-9.88-7.01-16.13 40.571-51.745 39.43-50.309 39.53-50.41 2.748 3.399 5.728 6.607 8.92 9.588 3.058 2.856 3.482 7.546.901 10.839-33.506 42.731-31.522 40.165-31.916 40.779z" fill="#9cbcff"/><path d="m436.922 470.689c.983.534 1.341 1.762.768 2.723-4.068 6.821-14.09 6.41-17.58-.73-28.455-58.208-28.12-57.43-28.12-57.53 2.41-.559 4.783-1.21 7.117-1.95 3.81-1.209 7.932.492 9.688 4.083l23.965 49.017c.972 1.988 2.449 3.456 4.162 4.387z" fill="#9cbcff"/></svg>